# xmcd
#
# Track frame offsets:
#	150
#	6867
#	14212
#	145645
#	153410
#	161345
#	309777
#
# Disc length: 4164 seconds
#
# Revision: 1
# Processed by: cddbd v1.5.1PL0 Copyright (c) Steve Scherf et al.
# Submitted via: CDex 1.50Beta5
#
DISCID=49104207
DTITLE=川井憲次 - はいぱーぽりす外伝　いで湯、湯の花、恋の花
DYEAR=1997
DGENRE=Soundtrack
TTITLE0=川井憲次/Goin' Town
TTITLE1=川井憲次/朔之進のテーマ
TTITLE2=ドラマ/盗聴器の正しい使い方
TTITLE3=川井憲次/Danger Zone
TTITLE4=川井憲次/Dear Friends
TTITLE5=ドラマ/いで湯、湯の花、恋の花
TTITLE6=川井憲次/That's はいぱーてんしょん!!（Instrumental Version）
EXTD=
EXTT0=
EXTT1=
EXTT2=
EXTT3=
EXTT4=
EXTT5=
EXTT6=
PLAYORDER=
